<?xml version="1.0" encoding="iso-8859-1"?>
<!-- Generator: Adobe Illustrator 19.0.0, SVG Export Plug-In . SVG Version: 6.00 Build 0)  -->
<svg version="1.1" id="Layer_1" xmlns="http://www.w3.org/2000/svg" xmlns:xlink="http://www.w3.org/1999/xlink" x="0px" y="0px"
	 viewBox="0 0 512 512" style="enable-background:new 0 0 512 512;" xml:space="preserve">
<path style="fill:#F2F2F2;" d="M382.217,276.331H122.043c-9.382,0-16.988,7.606-16.988,16.988v21.784h294.151v-21.784
	C399.205,283.936,391.599,276.331,382.217,276.331z"/>
<path style="fill:#E6E6E6;" d="M160.527,276.331h-38.484c-9.382,0-16.988,7.606-16.988,16.988v20.125h55.472V276.331z"/>
<path style="fill:#CCCCCC;" d="M408.98,307.295H95.28c-8.819,0-16.909,4.891-21.007,12.7L53.08,360.374h398.099l-21.192-40.379
	C425.89,312.186,417.799,307.295,408.98,307.295z"/>
<path style="fill:#B3B3B3;" d="M74.272,319.994L53.08,360.374h61.927l27.857-53.08H95.28
	C86.462,307.295,78.37,312.186,74.272,319.994z"/>
<path style="fill:#666666;" d="M495.965,368.668H8.294c-4.58,0-8.294-3.713-8.294-8.294s3.713-8.294,8.294-8.294h487.672
	c4.581,0,8.294,3.713,8.294,8.294S500.547,368.668,495.965,368.668z"/>
<path style="fill:#35D8B9;" d="M281.978,186.338l-29.849-43.006l-29.847,43.006c-10.021,14.439-8.271,33.979,4.157,46.406l0,0
	c14.189,14.189,37.194,14.189,51.381,0l0,0C290.249,220.316,291.998,200.775,281.978,186.338z"/>
<path style="fill:#2BBFA3;" d="M240.625,232.744L240.625,232.744c-5.566-12.427-6.35-31.968-1.862-46.406l13.367-43.006
	l-29.849,43.006c-10.021,14.438-8.271,33.979,4.157,46.406l0,0c7.094,7.095,16.393,10.641,25.691,10.641
	C247.966,243.385,243.802,239.839,240.625,232.744z"/>
<g>
	<path style="fill:#666666;" d="M440.121,270.802h-16.587c0-15.244-12.402-27.646-27.646-27.646v-16.587
		C420.278,226.569,440.121,246.412,440.121,270.802z"/>
	<path style="fill:#666666;" d="M512,270.802h-16.587c0-54.878-44.647-99.525-99.525-99.525V154.69
		C459.913,154.69,512,206.778,512,270.802z"/>
	<path style="fill:#666666;" d="M476.06,270.802h-16.587c0-35.061-28.524-63.585-63.585-63.585v-16.587
		C440.095,190.629,476.06,226.594,476.06,270.802z"/>
</g>
<g>
</g>
<g>
</g>
<g>
</g>
<g>
</g>
<g>
</g>
<g>
</g>
<g>
</g>
<g>
</g>
<g>
</g>
<g>
</g>
<g>
</g>
<g>
</g>
<g>
</g>
<g>
</g>
<g>
</g>
</svg>
